HIERARCHY
ROOT Hips
{
  OFFSET 5.84602e-005 68.8428 3.50346
  CHANNELS 6 Xposition Yposition Zposition Zrotation Xrotation Yrotation
  JOINT Spine
  {
    OFFSET 0 8.597 -4.6522
    CHANNELS 3 Zrotation Xrotation Yrotation
    JOINT Spine1
    {
      OFFSET 0 7.8454 0.4098
      CHANNELS 3 Zrotation Xrotation Yrotation
      JOINT Spine2
      {
        OFFSET 0 9.7078 -2.1609
        CHANNELS 3 Zrotation Xrotation Yrotation
        JOINT Neck
        {
          OFFSET 0 21.8761 -0.4549
          CHANNELS 3 Zrotation Xrotation Yrotation
          JOINT Head
          {
            OFFSET 0 12.3537 3.3602
            CHANNELS 3 Zrotation Xrotation Yrotation
            End Site
            {
              OFFSET 0.0001 18.9506 0.5657
            }
          }
        }
        JOINT LeftShoulder
        {
          OFFSET 2.2086 21.1115 7.2329
          CHANNELS 3 Zrotation Xrotation Yrotation
          JOINT LeftArm
          {
            OFFSET 13.1193 3.0282 -4.8998
            CHANNELS 3 Zrotation Xrotation Yrotation
            JOINT LeftForeArm
            {
              OFFSET 27.4081 -0.0973053 -0.2375
              CHANNELS 3 Zrotation Xrotation Yrotation
              JOINT LeftHand
              {
                OFFSET 22.8641 0.0662994 -0.1369
                CHANNELS 3 Zrotation Xrotation Yrotation
                JOINT LeftHandIndex1
                {
                  OFFSET 8.8614 0.775009 2.4612
                  CHANNELS 3 Zrotation Xrotation Yrotation
                  JOINT LeftHandIndex2
                  {
                    OFFSET 3.3146 -0.808304 0.5841
                    CHANNELS 3 Zrotation Xrotation Yrotation
                    JOINT LeftHandIndex3
                    {
                      OFFSET 2.2628 -0.552002 0.3989
                      CHANNELS 3 Zrotation Xrotation Yrotation
                      End Site
                      {
                        OFFSET 1.6102 -0.4807 0.2612
                      }
                    }
                  }
                }
                JOINT LeftHandMiddle1
                {
                  OFFSET 8.9937 0.895004 0.2143
                  CHANNELS 3 Zrotation Xrotation Yrotation
                  JOINT LeftHandMiddle2
                  {
                    OFFSET 4.0984 0.0113983 -0.0242
                    CHANNELS 3 Zrotation Xrotation Yrotation
                    JOINT LeftHandMiddle3
                    {
                      OFFSET 2.2716 0.00689697 -0.0138001
                      CHANNELS 3 Zrotation Xrotation Yrotation
                      End Site
                      {
                        OFFSET 2.0404 -0.1441 0.0027
                      }
                    }
                  }
                }
                JOINT LeftHandRing1
                {
                  OFFSET 8.5234 0.597198 -2.0164
                  CHANNELS 3 Zrotation Xrotation Yrotation
                  JOINT LeftHandRing2
                  {
                    OFFSET 3.7188 -0.188293 -0.2328
                    CHANNELS 3 Zrotation Xrotation Yrotation
                    JOINT LeftHandRing3
                    {
                      OFFSET 2.1191 -0.106598 -0.1332
                      CHANNELS 3 Zrotation Xrotation Yrotation
                      End Site
                      {
                        OFFSET 1.8737 -0.2304 -0.0886
                      }
                    }
                  }
                }
                JOINT LeftHandPinky1
                {
                  OFFSET 7.9094 -0.601089 -3.4825
                  CHANNELS 3 Zrotation Xrotation Yrotation
                  JOINT LeftHandPinky2
                  {
                    OFFSET 2.2874 -0.477005 -0.6314
                    CHANNELS 3 Zrotation Xrotation Yrotation
                    JOINT LeftHandPinky3
                    {
                      OFFSET 1.6774 -0.349396 -0.4633
                      CHANNELS 3 Zrotation Xrotation Yrotation
                      End Site
                      {
                        OFFSET 1.4888 -0.4091 -0.3416
                      }
                    }
                  }
                }
                JOINT LeftHandThumb1
                {
                  OFFSET 1.833 -1.3875 1.3896
                  CHANNELS 3 Zrotation Xrotation Yrotation
                  JOINT LeftHandThumb2
                  {
                    OFFSET 3.4129 -1.121 2.5732
                    CHANNELS 3 Zrotation Xrotation Yrotation
                    JOINT LeftHandThumb3
                    {
                      OFFSET 2.2474 -0.804199 1.6192
                      CHANNELS 3 Zrotation Xrotation Yrotation
                      End Site
                      {
                        OFFSET 1.6527 -0.5689 1.1317
                      }
                    }
                  }
                }
              }
            }
          }
        }
        JOINT RightShoulder
        {
          OFFSET -2.2086 21.1115 7.2329
          CHANNELS 3 Zrotation Xrotation Yrotation
          JOINT RightArm
          {
            OFFSET -13.1216 3.0287 -4.9007
            CHANNELS 3 Zrotation Xrotation Yrotation
            JOINT RightForeArm
            {
              OFFSET -27.4081 -0.0973053 -0.2375
              CHANNELS 3 Zrotation Xrotation Yrotation
              JOINT RightHand
              {
                OFFSET -22.8641 0.0664063 -0.1369
                CHANNELS 3 Zrotation Xrotation Yrotation
                JOINT RightHandIndex1
                {
                  OFFSET -8.8614 0.774994 2.4612
                  CHANNELS 3 Zrotation Xrotation Yrotation
                  JOINT RightHandIndex2
                  {
                    OFFSET -3.3146 -0.808304 0.5841
                    CHANNELS 3 Zrotation Xrotation Yrotation
                    JOINT RightHandIndex3
                    {
                      OFFSET -2.2628 -0.552002 0.3989
                      CHANNELS 3 Zrotation Xrotation Yrotation
                      End Site
                      {
                        OFFSET -1.6102 -0.4807 0.2612
                      }
                    }
                  }
                }
                JOINT RightHandMiddle1
                {
                  OFFSET -8.9937 0.894989 0.2143
                  CHANNELS 3 Zrotation Xrotation Yrotation
                  JOINT RightHandMiddle2
                  {
                    OFFSET -4.0984 0.0113983 -0.0242
                    CHANNELS 3 Zrotation Xrotation Yrotation
                    JOINT RightHandMiddle3
                    {
                      OFFSET -2.2716 0.00691223 -0.0138001
                      CHANNELS 3 Zrotation Xrotation Yrotation
                      End Site
                      {
                        OFFSET -2.0404 -0.1441 0.0027
                      }
                    }
                  }
                }
                JOINT RightHandRing1
                {
                  OFFSET -8.5234 0.597198 -2.0164
                  CHANNELS 3 Zrotation Xrotation Yrotation
                  JOINT RightHandRing2
                  {
                    OFFSET -3.7188 -0.188309 -0.2328
                    CHANNELS 3 Zrotation Xrotation Yrotation
                    JOINT RightHandRing3
                    {
                      OFFSET -2.1191 -0.106598 -0.1332
                      CHANNELS 3 Zrotation Xrotation Yrotation
                      End Site
                      {
                        OFFSET -1.8737 -0.2304 -0.0886
                      }
                    }
                  }
                }
                JOINT RightHandPinky1
                {
                  OFFSET -7.9094 -0.601105 -3.4825
                  CHANNELS 3 Zrotation Xrotation Yrotation
                  JOINT RightHandPinky2
                  {
                    OFFSET -2.2874 -0.477005 -0.6314
                    CHANNELS 3 Zrotation Xrotation Yrotation
                    JOINT RightHandPinky3
                    {
                      OFFSET -1.6774 -0.349396 -0.4633
                      CHANNELS 3 Zrotation Xrotation Yrotation
                      End Site
                      {
                        OFFSET -1.4888 -0.4091 -0.3416
                      }
                    }
                  }
                }
                JOINT RightHandThumb1
                {
                  OFFSET -1.833 -1.38751 1.3896
                  CHANNELS 3 Zrotation Xrotation Yrotation
                  JOINT RightHandThumb2
                  {
                    OFFSET -3.41299 -1.12099 2.5732
                    CHANNELS 3 Zrotation Xrotation Yrotation
                    JOINT RightHandThumb3
                    {
                      OFFSET -2.24741 -0.804108 1.6192
                      CHANNELS 3 Zrotation Xrotation Yrotation
                      End Site
                      {
                        OFFSET -1.6527 -0.5689 1.1317
                      }
                    }
                  }
                }
              }
            }
          }
        }
      }
    }
  }
  JOINT RightUpLeg
  {
    OFFSET -9.1966 3.8861 -0.7581
    CHANNELS 3 Zrotation Xrotation Yrotation
    JOINT RightLeg
    {
      OFFSET -0.7359 -41.0265 0
      CHANNELS 3 Zrotation Xrotation Yrotation
      JOINT RightFoot
      {
        OFFSET 0 -40.2855 0
        CHANNELS 3 Zrotation Xrotation Yrotation
        JOINT RightToeBase
        {
          OFFSET 0 -5.6122 11.7359
          CHANNELS 3 Zrotation Xrotation Yrotation
          End Site
          {
            OFFSET 0 0 7.8731
          }
        }
      }
    }
  }
  JOINT LeftUpLeg
  {
    OFFSET 9.1965 3.8864 -0.7581
    CHANNELS 3 Zrotation Xrotation Yrotation
    JOINT LeftLeg
    {
      OFFSET 0.7359 -41.0268 0
      CHANNELS 3 Zrotation Xrotation Yrotation
      JOINT LeftFoot
      {
        OFFSET 0 -40.2855 0
        CHANNELS 3 Zrotation Xrotation Yrotation
        JOINT LeftToeBase
        {
          OFFSET 0 -5.6122 11.7359
          CHANNELS 3 Zrotation Xrotation Yrotation
          End Site
          {
            OFFSET 0 0 7.8731
          }
        }
      }
    }
  }
}
MOTION
Frames:	5
Frame Time:	0.0333333
5.84602e-005 68.8428 3.50346 0 0 -0 0 0 -0 0 0 -0 0 0 -0 0 0 -0 0 0 -0 0 0 -0 0 0 -0 0 0 -0 0 0 -0 0 0 -0 0 0 -0 0 0 -0 0 0 -0 -0.0146107 -8.87603e-005 -2.63497e-007 2.99804e-018 -2.42657e-020 -1.42182e-022 0 0 -0 -0.0187562 -0.001176 5.858e-005 5.06224e-018 3.88251e-019 1.21329e-020 0 0 -0 -0.012269 -0.00324817 0.000675346 -1.74678e-018 3.88251e-019 -0 0 0 -0 0 0 -0 0 0 -0 0 0 -0 0 0 -0 0 0 -0 0 0 -0 0 0 -0 0 0 -0 0 0 -0 0 0 -0 0.0149955 -9.10982e-005 2.64101e-007 -9.69331e-018 1.21329e-020 -4.7394e-023 0 0 -0 0.0189956 -0.00119102 -5.96516e-005 -5.41541e-019 0 2.42657e-020 0 0 -0 0.0122698 -0.00324857 -0.000673756 -2.00796e-019 0 -1.94126e-019 0 0 -0 0 0 -0 0 0 -0 3.39842 1.33031 -0.0637918 -5.65207e-008 0.834868 -0.000436188 -3.39935 -2.16518 -0.0642563 -8.89002e-024 -1.18485e-023 -1.48106e-024 -3.39844 1.35642 0.0640283 -3.18788e-007 0.782166 -0.000588827 3.39931 -2.13858 0.0634662 1.1399e-023 0 -0 
-0.0838685 42.6553 5.82444 -0 -28.1228 -0 -0.0278092 2.7303 -0.0381305 -0.0538888 5.46065 -0.0750608 -0.0538888 5.46064 -0.0750609 1.53369e-007 6.70042 3.44175e-007 -5.23216e-009 3.35131 3.34432e-008 -1.78678 -1.03345 2.72135 -26.8367 0.966409 10.9281 7.32921 8.84853 -27.7673 -0.873882 8.0043 -1.34615 -2.06347e-008 1.02775e-007 2.00182e-008 1.03173e-008 -5.13877e-008 -1.00091e-008 -2.06347e-008 1.02775e-007 2.00182e-008 -2.06347e-008 1.02775e-007 2.00182e-008 -0.0146474 -8.94235e-005 -1.8085e-006 7.08707e-007 1.13732e-007 6.62599e-007 -2.06347e-008 1.02775e-007 2.00182e-008 -0.0187824 -0.00117686 5.80122e-005 -2.06345e-008 1.02772e-007 2.00352e-008 -2.06347e-008 1.02775e-007 2.00182e-008 -0.0124004 -0.00328253 0.000684723 -2.06335e-008 1.02773e-007 2.00299e-008 -2.06347e-008 1.02775e-007 2.00182e-008 1.03173e-008 -5.13877e-008 -1.00091e-008 -2.06347e-008 1.02775e-007 2.00182e-008 1.93068 -0.894542 -2.52205 26.7474 0.997934 -10.8928 -7.45341 8.65238 27.676 0.703447 7.81885 1.36982 -5.06162e-008 -2.57306e-007 4.91259e-008 -4.0493e-008 -2.05845e-007 3.93007e-008 -5.06162e-008 -2.57306e-007 4.91259e-008 -5.06162e-008 -2.57306e-007 4.91259e-008 0.0149705 -9.12164e-005 -1.11385e-006 -5.06164e-008 -2.573e-007 4.91596e-008 -5.06162e-008 -2.57306e-007 4.91259e-008 0.0190685 -0.00119484 -5.82932e-005 -5.06158e-008 -2.57298e-007 4.91693e-008 -5.06162e-008 -2.57306e-007 4.91259e-008 0.0123067 -0.00325856 -0.000680712 -5.06134e-008 -2.57301e-007 4.9155e-008 -5.06162e-008 -2.57306e-007 4.91259e-008 -4.0493e-008 -2.05845e-007 3.93007e-008 -5.06162e-008 -2.57306e-007 4.91259e-008 -12.0424 -49.3366 -14.5228 0.746473 41.4096 -3.09676 -8.99933 13.705 13.5873 5.96354e-016 0 1.19271e-015 16.417 -3.20319 -6.61423 -1.84832 0.0441883 0.0248975 8.21718 3.2889 11.6632 2.36266e-006 3.38323e-006 5.60297e-007 
-0.126697 17.1057 7.09076 -0 -56.2455 -0 -0.0478355 5.46049 -0.0801459 -0.0885649 10.9211 -0.156764 -0.0885649 10.9211 -0.156764 1.24653e-006 13.4008 -1.04514e-006 2.73998e-008 6.70262 -1.24118e-007 -3.47549 -2.05986 5.44534 -54.0331 1.827 21.8646 21.9276 11.3413 -56.4704 -1.35792 15.9952 -2.77353 1.05219e-006 8.40073e-007 2.88079e-006 -9.78018e-008 5.78856e-007 3.12476e-007 -1.59028e-015 4.37326e-015 1.59028e-014 1.05219e-006 8.40073e-007 2.88079e-006 -0.0146192 -8.86029e-005 2.7856e-007 1.05093e-006 8.39698e-007 2.8809e-006 1.05219e-006 8.40073e-007 2.88079e-006 -0.0187834 -0.00117672 6.01192e-005 2.38542e-015 2.78299e-015 -6.36111e-015 1.05219e-006 8.40073e-007 2.88079e-006 -0.012248 -0.00324197 0.000676321 1.59028e-015 -3.97569e-016 -3.18055e-015 1.05219e-006 8.40073e-007 2.88079e-006 -9.78018e-008 5.78856e-007 3.12476e-007 -1.59028e-015 4.37326e-015 1.59028e-014 3.78267 -1.78383 -5.04594 53.8652 1.88731 -21.7948 -21.9979 11.1302 56.2495 1.02005 15.6241 2.81839 2.38542e-015 1.59028e-015 -0 -1.98785e-015 2.38542e-015 -0 1.19271e-015 3.57812e-015 3.18055e-015 2.38542e-015 1.59028e-015 -0 0.0149789 -9.13286e-005 5.73435e-007 3.97569e-015 3.97569e-016 9.54166e-015 2.38542e-015 1.59028e-015 -0 0.0189618 -0.0011887 -5.79399e-005 -1.19271e-015 -9.54166e-015 -0 2.38542e-015 1.59028e-015 -0 0.0122318 -0.00323839 -0.000673779 2.78299e-015 0 -3.18055e-015 2.38542e-015 1.59028e-015 -0 -1.98785e-015 2.38542e-015 -0 1.19271e-015 3.57812e-015 3.18055e-015 -125.424 -68.7613 -117.7 8.45367 79.5258 -11.5058 -22.8808 28.0126 28.6042 3.44504e-006 2.21812e-007 -4.08245e-007 34.9893 -7.80861 -13.36 -3.70278 0.0394932 0.0924667 10.7495 7.45647 23.6551 -3.18055e-015 6.36111e-015 3.18055e-015 
-0.227345 -0.48202 7.24409 -0 -76.0169 -0 -0.0568578 7.35883 -0.112234 -0.100297 14.7178 -0.219789 -0.100297 14.7177 -0.219789 1.68906e-007 17.9983 3.08375e-007 3.77783e-009 8.99857 2.52222e-008 -4.45692 -2.68158 7.38724 -73.3592 2.277 29.5862 33.3276 7.16904 -75.7658 -1.55924 21.607 -3.80327 -7.95139e-016 -1.14301e-015 -0 5.96354e-016 2.28602e-015 -0 -3.97569e-016 2.33572e-015 -1.59028e-015 -7.95139e-016 -1.14301e-015 -0 -0.0146301 -8.76203e-005 -3.55391e-006 1.20365e-007 -7.31859e-008 8.45387e-007 -7.95139e-016 -1.14301e-015 -0 -0.0187644 -0.00117595 6.71659e-005 0 4.57205e-015 -0 -7.95139e-016 -1.14301e-015 -0 -0.012263 -0.00324644 0.000669483 -1.98785e-016 -7.05686e-015 3.18055e-015 -7.95139e-016 -1.14301e-015 -0 5.96354e-016 2.28602e-015 -0 -3.97569e-016 2.33572e-015 -1.59028e-015 4.8862 -2.31423 -6.84975 73.1409 2.35466 -29.4939 -33.3601 7.1 75.5142 1.11225 21.1078 3.85799 2.32375e-006 2.27964e-007 -6.15938e-007 2.32375e-006 2.27964e-007 -6.15938e-007 2.32375e-006 2.27964e-007 -6.15938e-007 2.32375e-006 2.27964e-007 -6.15938e-007 0.0149981 -8.86797e-005 6.09265e-007 2.32374e-006 2.27884e-007 -6.1597e-007 2.32375e-006 2.27964e-007 -6.15938e-007 0.0190087 -0.00119337 -6.06789e-005 2.32374e-006 2.27864e-007 -6.16e-007 2.32375e-006 2.27964e-007 -6.15938e-007 0.0122707 -0.00324596 -0.000678283 2.1652e-006 8.75248e-008 -1.54503e-006 2.32375e-006 2.27964e-007 -6.15938e-007 2.32375e-006 2.27964e-007 -6.15938e-007 2.32375e-006 2.27964e-007 -6.15938e-007 -167.076 -40.2754 -146.207 172.872 73.23 -177.178 -38.0688 33.9869 42.2378 1.83451e-006 3.78943e-007 -8.68589e-007 47.3048 -10.4485 -18.2477 -5.00068 -1.30674e-005 0.0998171 11.3124 9.2031 32.3414 1.90833e-014 8.94531e-016 -5.96354e-016 
-0.286598 -5.4521 7.21248 -0 -81.8694 -0 -0.0585729 7.87089 -0.121886 -0.101513 15.7419 -0.238995 -0.101513 15.7419 -0.238995 1.49021e-007 19.0912 1.38252e-007 1.20458e-008 9.53557 1.29758e-007 -4.39265 -2.64677 8.01985 -79.1275 2.30037 31.9323 36.3595 4.98847 -81.118 -1.86323 23.2897 -3.95589 1.13001e-006 -1.2055e-006 -2.614e-007 -7.54929e-008 -2.33551e-006 8.10004e-008 2.33551e-006 -7.5493e-008 -6.038e-007 1.13001e-006 -1.2055e-006 -2.614e-007 -0.0146226 -9.28399e-005 -6.6656e-006 2.33552e-006 -7.54157e-008 -6.03812e-007 1.13001e-006 -1.2055e-006 -2.614e-007 -0.0187458 -0.00117831 5.8066e-005 2.33552e-006 -7.53946e-008 -6.03836e-007 1.13001e-006 -1.2055e-006 -2.614e-007 -0.0122634 -0.0032498 0.000681031 2.3355e-006 -7.544e-008 -6.03875e-007 1.13001e-006 -1.2055e-006 -2.614e-007 -7.54929e-008 -2.33551e-006 8.10004e-008 2.33551e-006 -7.5493e-008 -6.038e-007 4.84951 -2.25996 -7.44966 78.8931 2.38298 -31.8367 -36.3929 4.97525 80.89 1.39756 22.7584 4.00879 -6.83461e-007 -1.05356e-006 5.72523e-007 1.14831e-031 -5.51627e-015 1.19271e-015 -1.18624e-031 -8.54774e-015 -7.95139e-016 -6.83461e-007 -1.05356e-006 5.72523e-007 0.0149995 -9.2504e-005 -4.27052e-007 -9.51749e-032 6.85807e-015 7.95139e-016 -6.83461e-007 -1.05356e-006 5.72523e-007 0.0190231 -0.00119438 -5.87284e-005 7.95139e-016 8.24956e-015 -0 -6.83461e-007 -1.05356e-006 5.72523e-007 0.012255 -0.00324616 -0.000682322 7.95139e-016 -5.1684e-015 -7.95139e-016 -6.83461e-007 -1.05356e-006 5.72523e-007 1.14831e-031 -5.51627e-015 1.19271e-015 -1.18624e-031 -8.54774e-015 -7.95139e-016 -173.887 -31.7429 -147.997 174.941 65.3826 -179.697 -43.0348 34.804 46.5852 6.63213e-006 3.81513e-007 1.97132e-006 50.7085 -11.0092 -19.8009 -5.37288 0.0556788 0.0456789 11.3438 9.27019 34.7935 3.18055e-015 1.59028e-015 -0 
